# Blender v2.78 (sub 0) OBJ File: ''
# www.blender.org
mtllib cube.mtl
o Cube_Cube.001
v -0.854526 -1.000000 0.854526
v -0.854526 -0.854526 1.000000
v -1.000000 -0.854526 0.854526
v -0.854526 0.854526 1.000000
v -0.854526 1.000000 0.854526
v -1.000000 0.854526 0.854526
v -0.854526 -1.000000 -0.854526
v -1.000000 -0.854526 -0.854526
v -0.854526 -0.854526 -1.000000
v -0.854526 1.000000 -0.854526
v -0.854526 0.854526 -1.000000
v -1.000000 0.854526 -0.854526
v 0.854526 -1.000000 0.854526
v 1.000000 -0.854526 0.854526
v 0.854526 -0.854526 1.000000
v 0.854526 1.000000 0.854526
v 0.854526 0.854526 1.000000
v 1.000000 0.854526 0.854526
v 0.854526 -1.000000 -0.854526
v 0.854526 -0.854526 -1.000000
v 1.000000 -0.854526 -0.854526
v 0.854526 1.000000 -0.854526
v 1.000000 0.854526 -0.854526
v 0.854526 0.854526 -1.000000
vt 0.3323 0.0010
vt 0.0010 0.0010
vt 0.0010 0.3323
vt 0.3323 0.3323
vt 0.3323 0.3343
vt 0.0010 0.3343
vt 0.0010 0.6657
vt 0.3323 0.6657
vt 0.6657 0.0010
vt 0.3343 0.0010
vt 0.3343 0.3323
vt 0.6657 0.3323
vt 0.6657 0.3343
vt 0.3343 0.3343
vt 0.3343 0.6657
vt 0.6657 0.6657
vt 0.3323 0.6677
vt 0.0010 0.6677
vt 0.0010 0.9990
vt 0.3323 0.9990
vt 0.7103 0.7490
vt 0.7490 0.7490
vt 0.7490 0.7103
vt 0.6687 0.7073
vt 0.7073 0.7073
vt 0.7073 0.6687
vt 0.6687 0.7490
vt 0.7073 0.7490
vt 0.7073 0.7103
vt 0.7103 0.7073
vt 0.7490 0.7073
vt 0.7490 0.6687
vt 0.7480 0.6677
vt 0.7093 0.6677
vt 0.7093 0.7063
vt 0.7063 0.7093
vt 0.6677 0.7093
vt 0.6677 0.7480
vt 0.7063 0.6677
vt 0.6677 0.6677
vt 0.6677 0.7063
vt 0.7480 0.7093
vt 0.7093 0.7093
vt 0.7093 0.7480
vt 0.7490 0.6657
vt 0.7490 0.3343
vt 0.7093 0.3343
vt 0.7093 0.6657
vt 0.3343 0.7073
vt 0.6657 0.7073
vt 0.6657 0.6677
vt 0.3343 0.6677
vt 0.7073 0.6657
vt 0.7073 0.3343
vt 0.6677 0.3343
vt 0.6677 0.6657
vt 0.3343 0.7490
vt 0.6657 0.7490
vt 0.6657 0.7093
vt 0.3343 0.7093
vt 0.9157 0.6657
vt 0.9157 0.3343
vt 0.8760 0.3343
vt 0.8760 0.6657
vt 0.3343 0.7907
vt 0.6657 0.7907
vt 0.6657 0.7510
vt 0.3343 0.7510
vt 0.7907 0.6657
vt 0.7907 0.3343
vt 0.7510 0.3343
vt 0.7510 0.6657
vt 0.3343 0.8323
vt 0.6657 0.8323
vt 0.6657 0.7927
vt 0.3343 0.7927
vt 0.8323 0.6657
vt 0.8323 0.3343
vt 0.7927 0.3343
vt 0.7927 0.6657
vt 0.3343 0.8740
vt 0.6657 0.8740
vt 0.6657 0.8343
vt 0.3343 0.8343
vt 0.8740 0.6657
vt 0.8740 0.3343
vt 0.8343 0.3343
vt 0.8343 0.6657
vt 0.3343 0.9157
vt 0.6657 0.9157
vt 0.6657 0.8760
vt 0.3343 0.8760
vt 0.9990 0.0010
vt 0.6677 0.0010
vt 0.6677 0.3323
vt 0.9990 0.3323
vn 0.0000 0.0000 1.0000
vn 1.0000 0.0000 0.0000
vn 0.0000 1.0000 0.0000
vn -1.0000 0.0000 0.0000
vn 0.0000 0.0000 -1.0000
vn -0.5774 -0.5774 0.5774
vn -0.5774 0.5774 0.5774
vn -0.5774 -0.5774 -0.5774
vn -0.5774 0.5774 -0.5774
vn 0.5774 -0.5774 0.5774
vn 0.5774 0.5774 0.5774
vn 0.5774 -0.5774 -0.5774
vn 0.5774 0.5774 -0.5774
vn -0.7071 -0.7071 0.0000
vn -0.7071 0.0000 0.7071
vn -0.7071 0.7071 0.0000
vn -0.7071 0.0000 -0.7071
vn 0.0000 -0.7071 -0.7071
vn 0.0000 0.7071 -0.7071
vn 0.7071 0.0000 -0.7071
vn 0.7071 -0.7071 0.0000
vn 0.7071 0.7071 0.0000
vn 0.7071 0.0000 0.7071
vn 0.0000 -0.7071 0.7071
vn 0.0000 0.7071 0.7071
vn 0.0000 -1.0000 0.0000
usemtl None
s off
f 15/1/1 17/2/1 4/3/1 2/4/1
f 21/5/2 23/6/2 18/7/2 14/8/2
f 22/9/3 10/10/3 5/11/3 16/12/3
f 3/13/4 6/14/4 12/15/4 8/16/4
f 9/17/5 11/18/5 24/19/5 20/20/5
f 1/21/6 2/22/6 3/23/6
f 4/24/7 5/25/7 6/26/7
f 7/27/8 8/28/8 9/29/8
f 10/30/9 11/31/9 12/32/9
f 13/33/10 14/34/10 15/35/10
f 16/36/11 17/37/11 18/38/11
f 19/39/12 20/40/12 21/41/12
f 22/42/13 23/43/13 24/44/13
f 7/45/14 1/46/14 3/47/14 8/48/14
f 2/49/15 4/50/15 6/51/15 3/52/15
f 5/53/16 10/54/16 12/55/16 6/56/16
f 11/57/17 9/58/17 8/59/17 12/60/17
f 19/61/18 7/62/18 9/63/18 20/64/18
f 10/65/19 22/66/19 24/67/19 11/68/19
f 23/69/20 21/70/20 20/71/20 24/72/20
f 13/73/21 19/74/21 21/75/21 14/76/21
f 22/77/22 16/78/22 18/79/22 23/80/22
f 17/81/23 15/82/23 14/83/23 18/84/23
f 1/85/24 13/86/24 15/87/24 2/88/24
f 16/89/25 5/90/25 4/91/25 17/92/25
f 7/93/26 19/94/26 13/95/26 1/96/26
